{"title":"The Asterisk War Season 2 (EngDub) 720p x264 Download","magnet":"magnet:?xt=urn:btih:107b355771bcd6938b971b01f3ad0b013b7101a5&dn=The+Asterisk+War+Season+2+%28EngDub%29+720p+x264+Download&tr=udp%3A%2F%2Ftracker.leechers-paradise.org%3A6969&tr=udp%3A%2F%2Fzer0day.ch%3A1337&tr=udp%3A%2F%2Fopen.demonii.com%3A1337&tr=udp%3A%2F%2Ftracker.coppersurfer.tk%3A6969&tr=udp%3A%2F%2Fexodus.desync.com%3A6969","uploader":"digimaza","categoryP":"video","categoryS":"tv_shows","size":"3408413463","seeders":"4","leechers":"15","description":"Gakusen Toshi Asterisk Season 2 (EngDub) 720p x264 Download\r\n\r\n..::File Specs::.. \r\nGeneral \r\n\r\nFormat                      : MPEG-4 \r\nFormat profile              : Base Media / Version 2 \r\nCodec ID                    : mp42 (isom/mp42) \r\nFile size                   : 243 MiB \r\nDuration                    : 23 min 26 s \r\nOverall bit rate mode       : Variable \r\nOverall bit rate            : 1 449 kb/s \r\n\r\nVideo \r\nID                          : 1 \r\nFormat                      : AVC \r\nFormat/Info                 : Advanced Video Codec \r\nFormat profile              : <a class=\"__cf_email__\" href=\"/cdn-cgi/l/email-protection\" data-cfemail=\"0f476668674f433c213e\">[email&#xA0;protected]</a><script data-cfhash=\"f9e31\" type=\"text/javascript\">/* <![CDATA[ */!function(t,e,r,n,c,a,p){try{t=document.currentScript||function(){for(t=document.getElementsByTagName('script'),e=t.length;e--;)if(t[e].getAttribute('data-cfhash'))return t[e]}();if(t&&(c=t.previousSibling)){p=t.parentNode;if(a=c.getAttribute('data-cfemail')){for(e='',r='0x'+a.substr(0,2)|0,n=2;a.length-n;n+=2)e+='%'+('0'+('0x'+a.substr(n,2)^r).toString(16)).slice(-2);p.replaceChild(document.createTextNode(decodeURIComponent(e)),c)}p.removeChild(t)}}catch(u){}}()/* ]]> */</script> \r\nFormat settings, CABAC      : Yes \r\nFormat settings, ReFrames   : 1 frame \r\nCodec ID                    : avc1 \r\nCodec ID/Info               : Advanced Video Coding \r\nDuration                    : 23 min 26 s \r\nBit rate                    : 1 255 kb/s \r\nMaximum bit rate            : 6 277 kb/s \r\nWidth                       : 1 280 pixels \r\nHeight                      : 720 pixels \r\nDisplay aspect ratio        : 16:9 \r\nFrame rate mode             : Constant \r\nFrame rate                  : 23.976 (24000/1001) FPS \r\nColor space                 : YUV \r\nChroma subsampling          : 4:2:0 \r\nBit depth                   : 8 bits \r\nScan type                   : Progressive \r\nBits/(Pixel*Frame)          : 0.057 \r\nStream size                 : 210 MiB (87%) \r\n\r\nAudio \r\nID                          : 2 \r\nFormat                      : AAC \r\nFormat/Info                 : Advanced Audio Codec \r\nFormat profile              : LC \r\nCodec ID                    : 40 \r\nDuration                    : 23 min 26 s \r\nBit rate mode               : Variable \r\nBit rate                    : 192 kb/s \r\nMaximum bit rate            : 202 kb/s \r\nChannel(s)                  : 2 channels \r\nChannel positions           : Front: L R \r\nSampling rate               : 44.1 kHz \r\nFrame rate                  : 43.066 FPS (1024 spf) \r\nCompression mode            : Lossy \r\nStream size                 : 32.2 MiB (13%) \r\n\r\n..::ScreenShots::.. \r\n <a href=\"\nhttps://s13.postimg.org/6bvpq45bb/vlcsnap-2017-05-31-23h35m39s966.png\" rel=\"nofollow\" target=\"_NEW\">\nhttps://s13.postimg.org/6bvpq45bb/vlcsnap-2017-05-31-23h35m39s966.png</a> <a href=\"\nhttps://s13.postimg.org/wlgs8wr8n/vlcsnap-2017-05-31-23h35m46s402.png\" rel=\"nofollow\" target=\"_NEW\">\nhttps://s13.postimg.org/wlgs8wr8n/vlcsnap-2017-05-31-23h35m46s402.png</a> <a href=\"\nhttps://s13.postimg.org/wa3x9w06f/vlcsnap-2017-05-31-23h36m08s599.png\" rel=\"nofollow\" target=\"_NEW\">\nhttps://s13.postimg.org/wa3x9w06f/vlcsnap-2017-05-31-23h36m08s599.png</a> \r\n\r\n================================================================ \r\nSeed Seed Seed Seed Seed Seed Seed Seed Seed Seed Seed Seed Seed \r\nTo direct download this file, Visit. \r\nwww.DigiMaza.com \r\nSeed Seed Seed Seed Seed Seed Seed Seed Seed Seed Seed Seed Seed \r\n================================================================","last_updated":"2017-06-01T12:13:20.757Z","parsed":{"xt":"urn:btih:107b355771bcd6938b971b01f3ad0b013b7101a5","dn":"The Asterisk War Season 2 (EngDub) 720p x264 Download","tr":["udp://exodus.desync.com:6969","udp://open.demonii.com:1337","udp://tracker.coppersurfer.tk:6969","udp://tracker.leechers-paradise.org:6969","udp://zer0day.ch:1337"],"infoHash":"107b355771bcd6938b971b01f3ad0b013b7101a5","infoHashBuffer":{"type":"Buffer","data":[16,123,53,87,113,188,214,147,139,151,27,1,243,173,11,1,59,113,1,165]},"name":"The Asterisk War Season 2 (EngDub) 720p x264 Download","announce":["udp://exodus.desync.com:6969","udp://open.demonii.com:1337","udp://tracker.coppersurfer.tk:6969","udp://tracker.leechers-paradise.org:6969","udp://zer0day.ch:1337"],"urlList":[]}}